<svg width="99" height="18" viewBox="0 0 99 18" fill="none" xmlns="http://www.w3.org/2000/svg">
<g clip-path="url(#clip0_45_2)">
<path d="M23.6721 17.8803H7.82073L6.40636 17.7828C5.36419 17.711 4.36293 17.5877 3.38021 17.2358C2.0561 16.7616 1.09946 15.7457 0.673187 14.4018C0.318736 13.2843 0.151488 12.1423 0.0797282 10.9628L0.0433971 10.3657C-0.0178293 9.3593 -0.0115088 8.37695 0.0450181 7.37099L0.0820766 6.71149C0.181998 4.93327 0.615378 2.39599 2.12027 1.41254C2.1617 1.38546 2.32557 1.42247 2.30827 1.40299C2.29081 1.38334 2.27334 1.2598 2.29428 1.24393C2.54169 1.05643 3.08123 0.685052 3.33621 0.821388C3.31278 0.808862 3.36447 0.672185 3.40308 0.658215C4.45561 0.2773 5.94129 0.0504513 7.18079 0.0505371L24.8403 0.0517589C26.283 0.0518585 28.4248 0.360268 29.5777 1.20574C30.3061 1.73998 30.848 2.38723 31.1849 3.2277C31.9966 5.32704 32.0082 8.18395 31.9166 10.4201L10.4578 10.421C10.4113 11.4585 10.3816 13.1207 11.3744 13.6701C11.8453 13.9306 12.3796 14.0299 12.9357 14.0298L19.0781 14.0297C19.4282 14.0297 19.7533 13.9659 20.0724 13.8815C21.0718 13.617 21.345 12.8721 21.4699 11.8696L31.7752 11.868C31.5477 14.2041 30.9177 16.4907 28.4198 17.2816C27.348 17.6209 26.2698 17.7279 25.156 17.7934C24.6414 17.8237 24.1362 17.7787 23.6721 17.8803ZM20.1527 3.96787C19.7381 3.88496 19.3258 3.79564 18.8865 3.79553L13.1306 3.79421C12.7272 3.79411 12.3362 3.86569 11.9552 3.92784C11.2508 4.0827 10.7439 4.57625 10.6013 5.29166C10.4499 6.05164 10.4181 6.82079 10.4504 7.6112L21.4948 7.61089C21.4723 6.32952 21.6626 4.39504 20.1527 3.96787Z" fill="black"/>
<path d="M89.8941 17.8803H74.0427L72.6922 17.7828C71.6143 17.705 70.5724 17.5924 69.5557 17.2155C68.3249 16.7593 67.4119 15.827 66.9688 14.5911C66.0933 12.1495 66.0957 8.23579 66.3997 5.66199C66.4869 4.92341 66.6391 4.25523 66.8661 3.55981C67.3504 2.07615 68.5113 0.953519 70.0153 0.524858C71.0484 0.23042 72.3035 0.0504248 73.4026 0.0504209L90.9927 0.050354C92.253 0.0503494 93.6607 0.273467 94.819 0.663875C94.8254 0.726021 94.814 0.853051 94.8445 0.832619C95.1031 0.658923 96.0505 1.23815 95.8816 1.42646C95.9927 1.3026 96.2209 1.5201 96.3827 1.67672C97.0413 2.31393 97.4396 3.12113 97.6741 4.00988C97.9647 5.11165 98.1302 6.22306 98.1379 7.3719L98.1582 10.4195L76.7027 10.4212C76.6238 11.1471 76.6639 11.9299 76.8606 12.6693C77.133 13.6933 78.1329 14.0298 79.0948 14.0304L85.017 14.0343C86.097 14.0349 87.2682 13.8195 87.5477 12.6253L87.7249 11.8683L98.0193 11.8686C97.9022 12.7943 97.7545 13.6786 97.4493 14.5471C96.9831 15.8738 95.9857 16.8603 94.6419 17.2835C93.5708 17.6208 92.4913 17.7286 91.3781 17.7935C90.8633 17.8236 90.3583 17.7787 89.8941 17.8803ZM86.2704 3.94674C85.8971 3.86517 85.5077 3.79592 85.1087 3.79594L79.2869 3.79619C78.2134 3.79624 77.0936 4.07544 76.8435 5.24408C76.6751 6.03075 76.6384 6.82952 76.6897 7.61125L87.7223 7.61096C87.6995 6.28887 87.9004 4.3029 86.2704 3.94674Z" fill="black"/>
<path d="M64.5936 17.8803H54.3537L54.3486 11.4917C54.3481 10.895 53.8481 10.4228 53.2596 10.4224L44.0632 10.4161L44.0617 17.8803H33.7439L33.7441 0C33.935 0.011945 34.0962 0.0512871 34.3025 0.0512806L61.3824 0.0504698C61.7374 0.0504593 61.972 0.0187512 62.3056 0.120102C63.6862 0.539575 64.7229 1.788 64.7948 3.26417C64.8343 4.07464 64.8286 4.8511 64.8024 5.6684C64.7452 7.44979 63.272 8.82191 61.5073 8.84206L61.4968 9.41774C63.2029 9.42489 64.5945 10.78 64.5943 12.5294L64.5936 17.8803ZM54.4041 6.59792L54.4019 4.76623C54.4013 4.2183 53.9741 3.78662 53.4033 3.78669L44.0884 3.78779L44.107 7.61111L53.4032 7.61122C53.9793 7.59551 54.4048 7.18321 54.4041 6.59792Z" fill="black"/>
</g>
<defs>
<clipPath id="clip0_45_2">
<rect width="98.1582" height="17.8803" fill="white"/>
</clipPath>
</defs>
</svg>
