<svg width="122" height="22" viewBox="0 0 122 22" fill="none" xmlns="http://www.w3.org/2000/svg">
<path d="M0 17.4349V16.5589L1.31336 16.3145C2.21322 16.145 2.48101 15.8755 2.50504 15.1458C2.50504 15.1458 2.57809 12.8317 2.57809 8.81373C2.57809 4.79573 2.50504 2.45849 2.50504 2.45849C2.43249 1.63068 2.21322 1.4362 1.31336 1.26488L0 1.02229V0.146281L3.74585 0.267623H10.3126C11.772 0.267623 14.204 0 14.204 0C14.204 0 14.0094 1.4844 13.7661 4.94211H12.8907L12.5744 3.75037C12.1609 2.2159 11.723 1.36306 10.726 1.36306H5.39955C4.98605 1.36306 4.96154 1.50934 4.96154 1.75192V8.61925C4.96154 8.61925 7.58826 8.59618 8.99919 8.52304C9.80158 8.47297 10.0938 8.18228 10.3126 7.28123L10.6529 5.94124H11.5042L11.3826 9.05819L11.5042 12.2734H10.6529L10.3126 10.9334C10.0693 10.0324 9.80158 9.73982 8.99919 9.69161C7.58826 9.61847 4.96154 9.59344 4.96154 9.59344V15.1458C4.96154 15.8755 5.25335 16.1681 6.15331 16.3145L7.70985 16.5589V17.4349L3.74585 17.3136L0 17.4349Z" fill="black"/>
<path d="M30.1892 16.1932H32.9375C34.1777 16.1932 35.0047 15.9988 35.9531 14.2449L37.0963 12.1503H37.9231L37.3396 17.435C37.3396 17.435 33.7884 17.3137 32.3534 17.3137H27.1976L23.4518 17.435V16.559L24.7652 16.3146C25.665 16.1451 25.9328 15.8756 25.9568 15.1459C25.9568 15.1459 26.03 12.8318 26.03 8.81381C26.03 4.79581 25.9568 2.45857 25.9568 2.45857C25.8843 1.63076 25.665 1.43628 24.7652 1.26496L23.4518 1.02237V0.146362L27.1976 0.267704L30.9185 0.146362V1.02237L29.6051 1.26496C28.7051 1.43628 28.4865 1.63076 28.4134 2.45857C28.4134 2.45857 28.3403 4.79581 28.3403 8.81381C28.3403 12.8318 28.3893 13.417 28.4379 14.8302C28.462 15.8756 28.9484 16.1932 30.1892 16.1932Z" fill="black"/>
<path d="M56.0975 17.435L52.3517 17.3137L48.6303 17.435V16.559L49.9197 16.3146C50.8437 16.1451 51.0383 15.9007 51.0628 15.1459C51.0868 14.3662 51.1114 12.8318 51.1114 11.8827V10.8122C51.1114 10.8122 49.4332 7.9378 46.1738 2.4355C45.7604 1.80208 45.4686 1.43628 44.6903 1.26496L43.5957 1.02237V0.146362L47.3415 0.267704L51.16 0.146362V1.02237L49.8466 1.26496C48.9467 1.43628 48.5333 1.80208 48.8736 2.4355C51.3546 6.76923 52.9843 9.81304 52.9843 9.81304C52.9843 9.81304 54.5409 7.23124 57.046 2.50677C57.4109 1.85018 57.0215 1.43628 56.1215 1.26496L54.8082 1.02237V0.146362L58.5295 0.267704L61.0832 0.146362V1.02237L59.9399 1.26496C59.1862 1.41124 58.8944 1.752 58.505 2.41047C55.5134 7.49886 53.5925 10.6889 53.5925 10.6889V11.8827C53.5925 12.8318 53.6165 14.3662 53.641 15.1459C53.665 15.9007 53.8842 16.1451 54.7841 16.3146L56.0975 16.559V17.435Z" fill="black"/>
<path d="M73.8585 15.0978C73.883 15.8274 74.1748 16.1451 75.0988 16.2664L76.3881 16.4358V17.3137H73.8344C73.7614 18.6518 73.372 19.676 72.6668 20.4057C71.8154 21.2585 70.5021 21.6725 68.6782 21.6956L68.2648 20.8446C70.3319 20.4057 71.402 19.4315 71.4265 16.4608C71.4265 16.4608 71.475 12.3447 71.4995 8.81381C71.4995 4.79581 71.4265 2.45857 71.4265 2.45857C71.3534 1.63076 71.1347 1.46132 70.2348 1.26496L69.043 1.02237V0.146362L72.6668 0.267704L76.3881 0.146362V1.02237L75.0988 1.26496C74.1748 1.43628 73.9802 1.63076 73.907 2.45857C73.907 2.45857 73.8344 4.79581 73.8344 8.81381C73.8344 11.6401 73.8585 15.0978 73.8585 15.0978Z" fill="black"/>
<path d="M85.8285 17.435V16.559L87.1419 16.3146C88.0419 16.1451 88.3097 15.8756 88.3337 15.1459C88.3337 15.1459 88.4067 12.8318 88.4067 8.81381C88.4067 4.79581 88.3337 2.45857 88.3337 2.45857C88.2606 1.63076 88.0419 1.43628 87.1419 1.26496L85.8285 1.02237V0.146362L89.5744 0.267704L93.2952 0.146362V1.02237L91.9819 1.26496C91.082 1.43628 90.8632 1.63076 90.7902 2.45857C90.7902 2.45857 90.7171 4.79581 90.7171 8.81381C90.7171 12.8318 90.7902 15.1459 90.7902 15.1459C90.8147 15.8756 91.082 16.1451 91.9819 16.3146L93.2952 16.559V17.435L89.5744 17.3137L85.8285 17.435Z" fill="black"/>
<path d="M104.196 1.26496L102.955 1.02237V0.146362L106.093 0.267704L108.403 0.146362C108.403 0.146362 108.89 1.21686 109.377 1.85018L118.108 13.5634C118.108 13.5634 118.011 8.76571 117.865 2.45857C117.841 1.67886 117.573 1.43628 116.673 1.26496L115.36 1.02237V0.146362L118.619 0.267704L121.781 0.146362V1.02237L120.467 1.26496C119.567 1.43628 119.276 1.67886 119.276 2.45857C119.276 2.45857 119.13 8.88695 119.13 17.435H117.914C110.787 7.67018 106.483 2.14284 106.483 2.14284C106.483 2.14284 106.507 11.8827 106.507 15.1459C106.507 15.9007 106.798 16.1451 107.698 16.3146L109.012 16.559V17.435L105.631 17.3137L102.615 17.435V16.559L103.928 16.3146C104.828 16.1451 105.096 15.9007 105.12 15.1459C105.29 11.0548 105.363 6.94055 105.363 2.45857C105.363 1.7039 105.096 1.43628 104.196 1.26496Z" fill="black"/>
</svg>
