<svg width="374" height="154" viewBox="0 0 374 154" fill="none" xmlns="http://www.w3.org/2000/svg">
<path d="M32.9541 75.3838C5.26426 75.3838 0.947591 57.0643 0.105314 49.1679C0.105314 48.7468 0.105314 48.6415 2.92721e-05 48.3257L23.0574 48.0098V49.7996C24.0049 56.7484 27.374 59.2753 33.3753 59.2753C38.7448 59.2753 42.2192 57.0643 42.2192 53.6952V53.4846C42.2192 48.9574 38.2184 47.2728 23.4785 43.5879C7.47524 39.587 1.5793 31.5854 1.5793 21.6886V21.4781C1.68458 10.2126 10.0021 1.44789e-06 32.6383 1.44789e-06C49.3785 1.44789e-06 63.9078 4.94838 65.066 24.0049V25.2683L42.2192 25.4789C42.2192 25.0577 42.2192 24.7419 42.1139 24.3208C41.6928 19.0565 38.3236 16.1086 32.7436 16.1086C27.374 16.1086 23.6891 18.5301 23.6891 21.7939V22.1098C23.6891 25.163 25.6895 26.637 38.4289 30.1114C55.8009 34.9545 64.7501 40.9557 64.7501 53.1688V53.4846C64.7501 68.2245 51.3789 75.3838 32.9541 75.3838ZM92.1504 74.5415H70.1459L70.1459 0.842274L103.521 0.842274L114.997 46.957L115.524 50.4314H115.839L116.366 46.957L128.053 0.842274L161.112 0.842274V74.5415H139.318V32.3224L139.634 26.7423H139.318L137.949 30.7431L125.947 74.5415H105.416L93.5191 30.7431L92.1504 26.7423H91.8346L92.1504 32.4277L92.1504 74.5415ZM241.34 74.5415L217.44 74.5415L214.597 63.2761L191.751 63.2761L188.908 74.5415H165.008L187.855 0.842274L218.493 0.842274L241.34 74.5415ZM202.911 18.3195L195.646 47.3781L210.702 47.3781L203.437 18.3195H202.911ZM310.103 50.7472V69.4879C310.103 72.0147 311.261 73.3834 313.156 73.3834V74.5415L291.046 74.5415C288.519 73.6993 286.94 70.8566 286.94 66.3293V52.4318C286.94 48.2204 285.045 44.3248 279.886 44.3248H268.41V74.5415H245.247V0.842274L287.888 0.842274C302.733 0.842274 311.366 8.84391 311.366 22.2151V23.0573C311.366 31.1643 307.576 36.0074 302.943 38.3236V38.7448C307.26 41.1663 310.103 44.9566 310.103 50.7472ZM268.41 15.3716V29.7956L281.044 29.7956C285.677 29.7956 288.204 27.5846 288.204 22.8468V22.2151C288.204 17.4773 285.677 15.3716 281.044 15.3716L268.41 15.3716ZM355.283 74.5415H332.121V16.7403L314.012 16.7403V0.842274L373.497 0.842274V16.7403L355.283 16.7403V74.5415ZM122.166 153.542L82.8953 153.542L82.8953 79.8423H122.482C136.275 79.8423 144.171 85.7382 144.171 97.6354V99.0041C144.171 107.006 140.486 112.586 133.327 114.165V114.586C143.223 116.587 146.487 123.43 146.487 131.642V133.853C146.487 147.119 137.749 153.542 122.166 153.542ZM105.637 94.898V109.638H117.007C121.324 109.638 123.851 107.006 123.851 102.478V101.952C123.851 97.4248 121.535 94.898 117.007 94.898H105.637ZM105.637 122.588L105.637 138.486H117.429C122.377 138.486 125.009 135.748 125.009 130.695V130.379C125.009 125.325 122.166 122.588 117.429 122.588H105.637ZM222.421 153.542H198.522L195.679 142.276H172.832L169.99 153.542H146.09L168.937 79.8423H199.575L222.421 153.542ZM183.992 97.3195L176.728 126.378H191.783L184.519 97.3195H183.992ZM291.185 129.747V148.488C291.185 151.015 292.343 152.383 294.238 152.383V153.542H272.128C269.601 152.699 268.022 149.857 268.022 145.329V131.432C268.022 127.22 266.127 123.325 260.968 123.325H249.492V153.542H226.329L226.329 79.8423H268.969C283.815 79.8423 292.448 87.8439 292.448 101.215V102.057C292.448 110.164 288.658 115.007 284.025 117.324V117.745C288.342 120.166 291.185 123.957 291.185 129.747ZM249.492 94.3716V108.796H262.126C266.758 108.796 269.285 106.585 269.285 101.847V101.215C269.285 96.4773 266.758 94.3716 262.126 94.3716H249.492Z" fill="black"/>
</svg>
