<svg width="1889" height="232" viewBox="0 0 1889 232" fill="none" xmlns="http://www.w3.org/2000/svg">
<path d="M100.998 231.038C16.1339 231.038 2.90411 174.892 0.322678 150.691C0.322678 149.4 0.322678 149.077 5.67161e-10 148.109L70.6666 147.141V152.627C73.5707 173.924 83.8964 181.668 102.289 181.668C118.746 181.668 129.394 174.892 129.394 164.566V163.921C129.394 150.045 117.132 144.883 71.9573 133.589C22.9102 121.327 4.84018 96.8035 4.84018 66.4718V65.8264C5.16285 31.2998 30.6545 4.61192e-06 100.03 4.61192e-06C151.336 4.61192e-06 195.866 15.1659 199.415 73.5707V77.4428L129.394 78.0882C129.394 76.7975 129.394 75.8294 129.071 74.5387C127.781 58.4048 117.455 49.3698 100.353 49.3698C83.8964 49.3698 72.6027 56.7914 72.6027 66.7944V67.7625C72.6027 77.1201 78.7335 81.6376 117.778 92.286C171.02 107.129 198.447 125.522 198.447 162.953V163.921C198.447 209.096 157.467 231.038 100.998 231.038ZM282.424 228.456L214.985 228.456L214.985 2.58142L317.274 2.58142L352.446 143.915L354.059 154.563H355.027L356.64 143.915L392.458 2.58142L493.779 2.58142L493.779 228.456L426.984 228.456L426.984 99.0623L427.952 81.9603H426.984L422.789 94.2221L386.004 228.456H323.082L286.619 94.2221L282.424 81.9603H281.456L282.424 99.385L282.424 228.456ZM739.662 228.456H666.414L657.702 193.93L587.681 193.93L578.968 228.456H505.72L575.742 2.58142L669.641 2.58142L739.662 228.456ZM621.885 56.146L599.62 145.205L645.763 145.205L623.498 56.146H621.885ZM950.409 155.531V212.968C950.409 220.712 953.958 224.907 959.767 224.907V228.456H892.004C884.26 225.875 879.42 217.163 879.42 203.287V160.694C879.42 147.787 873.611 135.848 857.8 135.848H822.628V228.456L751.639 228.456V2.58142L882.324 2.58142C927.821 2.58142 954.281 27.105 954.281 68.0852V70.6666C954.281 95.5128 942.665 110.356 928.467 117.455V118.746C941.697 126.167 950.409 137.784 950.409 155.531ZM822.628 47.111V91.318L861.35 91.318C875.548 91.318 883.292 84.5418 883.292 70.0212V68.0852C883.292 53.5646 875.548 47.111 861.35 47.111L822.628 47.111ZM1088.88 228.456H1017.89V51.3059L962.388 51.3059V2.58142L1144.7 2.58142V51.3059L1088.88 51.3059V228.456ZM1361.55 228.456L1241.19 228.456V2.58142L1362.52 2.58142C1404.79 2.58142 1428.99 20.6514 1428.99 57.1141V61.3089C1428.99 85.8325 1417.7 102.934 1395.75 107.775V109.065C1426.08 115.196 1436.09 136.17 1436.09 161.339V168.115C1436.09 208.773 1409.31 228.456 1361.55 228.456ZM1310.89 48.7244V93.8994H1345.74C1358.97 93.8994 1366.71 85.8325 1366.71 71.9573V70.3439C1366.71 56.4687 1359.61 48.7244 1345.74 48.7244L1310.89 48.7244ZM1310.89 133.589V182.313L1347.03 182.313C1362.19 182.313 1370.26 173.924 1370.26 158.435V157.467C1370.26 141.979 1361.55 133.589 1347.03 133.589L1310.89 133.589ZM1668.81 228.456H1595.56L1586.85 193.93H1516.83L1508.12 228.456L1434.87 228.456L1504.89 2.58142L1598.79 2.58142L1668.81 228.456ZM1551.03 56.146L1528.77 145.205H1574.91L1552.65 56.146H1551.03ZM1879.56 155.531V212.968C1879.56 220.712 1883.11 224.907 1888.92 224.907V228.456L1821.15 228.456C1813.41 225.875 1808.57 217.163 1808.57 203.287V160.694C1808.57 147.787 1802.76 135.848 1786.95 135.848H1751.78V228.456H1680.79V2.58142L1811.47 2.58142C1856.97 2.58142 1883.43 27.105 1883.43 68.0852V70.6666C1883.43 95.5128 1871.81 110.356 1857.62 117.455V118.746C1870.85 126.167 1879.56 137.784 1879.56 155.531ZM1751.78 47.111V91.318H1790.5C1804.7 91.318 1812.44 84.5418 1812.44 70.0212V68.0852C1812.44 53.5646 1804.7 47.111 1790.5 47.111L1751.78 47.111Z" fill="black"/>
</svg>
