<svg width="1110" height="129" viewBox="0 0 1110 129" fill="none" xmlns="http://www.w3.org/2000/svg">
<path d="M319.694 60.8601C302.694 60.8601 292.154 52.7001 292.154 34.3401V26.4351C292.154 8.07505 302.694 5.33462e-05 319.609 5.33462e-05C338.394 5.33462e-05 345.874 10.3701 346.554 23.1201C346.554 23.2051 346.554 23.9701 346.639 24.3101L327.939 24.4801C327.854 24.1401 327.854 22.6951 327.854 22.6101C327.259 16.1501 324.284 13.0051 319.609 13.0051C313.999 13.0051 310.854 16.83 310.854 24.6501V36.3801C310.854 43.9451 313.999 47.8551 319.609 47.8551C324.199 47.8551 327.174 44.9651 327.854 38.5051C327.854 38.2501 327.854 36.8051 327.939 36.3801L346.554 36.5501V37.8251C345.789 49.8951 338.394 60.8601 319.694 60.8601ZM377.09 60.8601C360.175 60.8601 349.805 52.1051 349.805 33.8301V26.6051C349.805 8.24505 360.175 5.33462e-05 377.09 5.33462e-05C394.09 5.33462e-05 404.46 8.16005 404.46 26.6051V33.8301C404.46 52.1051 394.09 60.8601 377.09 60.8601ZM377.09 47.8551C382.785 47.8551 385.76 43.8601 385.76 36.2101V24.8201C385.76 17.0851 382.785 13.0051 377.09 13.0051C371.48 13.0051 368.505 17.0851 368.505 24.8201V36.2101C368.505 43.8601 371.48 47.8551 377.09 47.8551ZM426.999 60.1801H409.234V0.68005H436.179L445.444 37.9101L445.869 40.7151H446.124L446.549 37.9101L455.984 0.68005H482.674V60.1801H465.079V26.0951L465.334 21.5901H465.079L463.974 24.8201L454.284 60.1801H437.709L428.104 24.8201L426.999 21.5901H426.744L426.999 26.1801V60.1801ZM538.265 60.1801H488.965V0.68005H537.245V13.5151H507.665V23.8851H533.42V35.2751H507.665V47.3451H538.265V60.1801ZM594.196 60.1801H575.496V13.5151H560.876V0.68005H608.901V13.5151H594.196V60.1801ZM664.615 60.1801H645.32L643.025 51.0851H624.58L622.285 60.1801H602.99L621.435 0.68005H646.17L664.615 60.1801ZM633.59 14.7901L627.725 38.2501H639.88L634.015 14.7901H633.59ZM691.825 60.8601C669.47 60.8601 665.985 46.0701 665.305 39.6951C665.305 39.3551 665.305 39.2701 665.22 39.0151L683.835 38.7601V40.2051C684.6 45.8151 687.32 47.8551 692.165 47.8551C696.5 47.8551 699.305 46.0701 699.305 43.3501V43.1801C699.305 39.5251 696.075 38.1651 684.175 35.1901C671.255 31.9601 666.495 25.5001 666.495 17.5101V17.3401C666.58 8.24505 673.295 5.33462e-05 691.57 5.33462e-05C705.085 5.33462e-05 716.815 3.99505 717.75 19.3801V20.4001L699.305 20.5701C699.305 20.2301 699.305 19.9751 699.22 19.6351C698.88 15.3851 696.16 13.0051 691.655 13.0051C687.32 13.0051 684.345 14.9601 684.345 17.595V17.8501C684.345 20.3151 685.96 21.5051 696.245 24.3101C710.27 28.2201 717.495 33.0651 717.495 42.9251V43.1801C717.495 55.0801 706.7 60.8601 691.825 60.8601ZM752.622 60.1801H733.922V13.5151H719.302V0.68005H767.327V13.5151H752.622V60.1801ZM820.252 60.1801H770.952V0.68005H819.232V13.5151H789.652V23.8851H815.407V35.2751H789.652V47.3451H820.252V60.1801ZM61.625 128.18H42.33L40.035 119.085H21.59L19.295 128.18H-6.04335e-06L18.445 68.68H43.18L61.625 128.18ZM30.6 82.7901L24.735 106.25H36.89L31.025 82.7901H30.6ZM113.941 128.18H86.5712V68.68H113.941C131.706 68.68 140.206 79.305 140.206 96.4751V100.385C140.206 117.725 131.706 128.18 113.941 128.18ZM105.271 81.5151V115.345H112.411C119.891 115.345 121.506 109.565 121.506 99.1101V97.2401C121.506 87.8901 120.061 81.5151 112.326 81.5151H105.271ZM163.669 128.18H144.969V68.68H163.669V128.18ZM213.77 68.68V81.5151H188.78V94.2651H209.18V105.995H188.78V128.18H170.08V68.68H213.77ZM260.63 68.68V81.5151H235.64V94.2651H256.04V105.995H235.64V128.18H216.94V68.68H260.63ZM313.099 128.18H263.799V68.68H312.079V81.5151H282.499V91.8851H308.254V103.275H282.499V115.345H313.099V128.18ZM370.075 108.97V124.1C370.075 126.14 371.01 127.245 372.54 127.245V128.18H354.69C352.65 127.5 351.375 125.205 351.375 121.55V110.33C351.375 106.93 349.845 103.785 345.68 103.785H336.415V128.18H317.715V68.68H352.14C364.125 68.68 371.095 75.1401 371.095 85.9351V86.6151C371.095 93.1601 368.035 97.0701 364.295 98.9401V99.2801C367.78 101.235 370.075 104.295 370.075 108.97ZM336.415 80.4101V92.0551H346.615C350.355 92.0551 352.395 90.2701 352.395 86.4451V85.9351C352.395 82.11 350.355 80.4101 346.615 80.4101H336.415ZM425.08 128.18H375.78V68.68H424.06V81.5151H394.48V91.8851H420.235V103.275H394.48V115.345H425.08V128.18ZM447.376 128.18H429.696V68.68H447.461L468.031 100.895H468.286L467.776 93.1601V68.68H485.371V128.18H468.286L447.206 96.2201H446.866L447.376 104.125V128.18ZM522.516 128.18H503.816V81.5151H489.196V68.68H537.221V81.5151H522.516V128.18ZM618.058 128.18H597.658L585.333 103.105L581.338 107.44V128.18H562.638V68.68H581.338V86.7001L596.298 68.68H616.698L596.808 90.6101L618.058 128.18ZM639.486 128.18H620.786V68.68H639.486V128.18ZM663.578 128.18H645.898V68.68H663.663L684.233 100.895H684.488L683.978 93.1601V68.68H701.573V128.18H684.488L663.408 96.2201H663.068L663.578 104.125V128.18ZM735.318 128.18H707.948V68.68H735.318C753.083 68.68 761.583 79.305 761.583 96.4751V100.385C761.583 117.725 753.083 128.18 735.318 128.18ZM726.648 81.5151V115.345H733.788C741.268 115.345 742.883 109.565 742.883 99.1101V97.2401C742.883 87.8901 741.438 81.5151 733.703 81.5151H726.648ZM813.892 128.86C796.977 128.86 786.607 120.105 786.607 101.83V94.6051C786.607 76.2451 796.977 68.0001 813.892 68.0001C830.892 68.0001 841.262 76.16 841.262 94.6051V101.83C841.262 120.105 830.892 128.86 813.892 128.86ZM813.892 115.855C819.587 115.855 822.562 111.86 822.562 104.21V92.8201C822.562 85.0851 819.587 81.0051 813.892 81.0051C808.282 81.0051 805.307 85.0851 805.307 92.8201V104.21C805.307 111.86 808.282 115.855 813.892 115.855ZM889.726 68.68V81.5151H864.736V94.2651H885.136V105.995H864.736V128.18H846.036V68.68H889.726ZM948.517 91.2051V68.68H967.217V128.18H948.517V104.04H933.387V128.18H914.687V68.68H933.387V91.2051H948.517ZM992.283 128.18H973.583V68.68H992.283V128.18ZM1024.45 107.27V96.0501H1051.73V128.18H1044.59L1043.66 121.125H1043.57C1039.92 126.565 1033.88 128.86 1024.87 128.86C1007.79 128.86 997.164 120.7 997.164 102.34V94.4351C997.164 76.0751 1007.7 68.0001 1024.62 68.0001C1043.4 68.0001 1050.88 78.3701 1051.56 91.0351L1051.65 92.3101L1032.95 92.4801L1032.78 90.4401C1032.27 83.8951 1029.38 81.0051 1024.7 81.0051C1019.09 81.0051 1015.86 84.5751 1015.86 92.6501V104.295C1015.86 112.2 1019.09 115.855 1024.7 115.855C1029.12 115.855 1031.93 113.39 1032.78 107.27H1024.45ZM1090.34 91.2051V68.68H1109.04V128.18H1090.34V104.04H1075.21V128.18H1056.51V68.68H1075.21V91.2051H1090.34Z" fill="black"/>
</svg>
